# AST/ASF file generated using VICON BodyLanguage
# -----------------------------------------------
:version 1.10
:name VICON
:units
  mass 1.0
  length 0.45
  angle deg
:documentation
   .ast/.asf automatically generated from VICON data using
   VICON BodyBuilder and BodyLanguage model FoxedUp or BRILLIANT.MOD
:root
   order TX TY TZ RX RY RZ
   axis XYZ
   position 0 0 0  
   orientation 0 0 0 
:bonedata
  begin
     id 1 
     name lhipjoint
     direction 0.661853 -0.702389 0.261917 
     length 2.64193 
     axis 0 0 0  XYZ
  end
  begin
     id 2 
     name lfemur
     direction 0.34202 -0.939693 0  
     length 7.01722  
     axis 0 0 20  XYZ
    dof rx ry rz
    limits (-160.0 20.0)
           (-70.0 70.0)
           (-60.0 70.0)
  end
  begin
     id 3 
     name ltibia
     direction 0.34202 -0.939693 0   
     length 8.25008   
     axis 0 0 20   XYZ
    dof rx
    limits (-10.0 170.0)
  end
  begin
     id 4 
     name lfoot
     direction 0.0709916 -0.195048 0.978221   
     length 2.31941   
     axis -90 7.62852e-016 20   XYZ
    dof rx rz
    limits (-45.0 90.0)
           (-70.0 20.0)
  end
  begin
     id 5 
     name ltoes
     direction 1.53586e-011 -4.22017e-011 1   
     length 1.16486   
     axis -90 7.62852e-016 20   XYZ
    dof rx
    limits (-90.0 20.0)
  end
  begin
     id 6 
     name rhipjoint
     direction -0.638185 -0.721362 0.268992   
     length 2.57244  
     axis 0 0 0  XYZ 
  end
  begin
     id 7 
     name rfemur
     direction -0.34202 -0.939693 0   
     length 7.07017   
     axis 0 0 -20   XYZ
    dof rx ry rz
    limits (-160.0 20.0)
           (-70.0 70.0)
           (-70.0 60.0)
  end
  begin
     id 8 
     name rtibia
     direction -0.34202 -0.939693 0   
     length 8.20386   
     axis 0 0 -20   XYZ
    dof rx
    limits (-10.0 170.0)
 end
 begin
     id 9 
     name rfoot
     direction -0.0822429 -0.225961 0.970658   
     length 2.32215  
     axis -90 -7.62852e-016 -20   XYZ
    dof rx rz
    limits (-45.0 90.0)
           (-20.0 70.0)
  end
  begin
     id 10 
     name rtoes
     direction -1.53597e-011 -4.21689e-011 1   
     length 1.16333   
     axis -90 -7.62852e-016 -20   XYZ
    dof rx
    limits (-90.0 20.0)
  end
  begin
     id 11 
     name lowerback
     direction -0.0131557 0.998589 -0.0514484   
     length 2.14993   
     axis 0 0 0   XYZ
    dof rx ry rz
    limits (-20.0 45.0)
           (-30.0 30.0)
           (-30.0 30.0)
  end
  begin
     id 12 
     name upperback
     direction -0.000776481 0.999993 0.00352685   
     length 2.15301   
     axis 0 0 0   XYZ
    dof rx ry rz
    limits (-20.0 45.0)
           (-30.0 30.0)
           (-30.0 30.0)
  end
  begin
     id 13 
     name thorax
     direction 0.00438186 0.999609 0.0276143   
     length 2.15424   
     axis 0 0 0   XYZ
    dof rx ry rz
    limits (-20.0 45.0)
           (-30.0 30.0)
           (-30.0 30.0)
  end
  begin
     id 14 
     name lowerneck
     direction -0.0488006 0.998094 0.0377807   
     length 1.90481   
     axis 0 0 0   XYZ
    dof rx ry rz
    limits (-20.0 45.0)
           (-30.0 30.0)
           (-30.0 30.0)
  end
  begin
     id 15 
     name upperneck
     direction 0.0443769 0.990702 -0.12861   
     length 1.91305   
     axis 0 0 0   XYZ
    dof rx ry rz
    limits (-20.0 45.0)
           (-30.0 30.0)
           (-30.0 30.0)
  end
  begin
     id 16
     name head
     direction 0.0165599 0.998647 -0.0492982  
     length 1.92369  
     axis 0 0 0   XYZ
    dof rx ry rz
    limits (-20.0 45.0)
           (-30.0 30.0)
           (-30.0 30.0)
  end
  begin
     id 17 
     name lclavicle
     direction 0.911936 0.410197 -0.0105506  
     length 3.52622  
     axis 0 0 0   XYZ
    dof ry rz
    limits (-20.0 10.0)
           (0.0 20.0)
  end
  begin
     id 18 
     name lhumerus
     direction 1 -4.48974e-011 -2.48591e-028   
     length 5.47651   
     axis 180 -30 -90   XYZ
    dof rx ry rz
    limits (-60.0 90.0)
           (-90.0 90.0)
           (-90.0 90.0)
  end
  begin
     id 19
     name lradius
     direction 1 -4.48938e-011 -4.40099e-027   
     length 3.09058   
     axis 180 -30 -90   XYZ
    dof rx
    limits (-10.0 170.0)
  end
  begin
     id 20
     name lwrist
     direction 1 -4.49042e-011 -2.99852e-027   
     length 1.54529   
     axis 1.95339e-015 90 90   XYZ
    dof ry
    limits (-180.0 0.0)
 end
  begin
     id 21 
     name lhand
     direction 1 -4.48815e-011 -5.98193e-027   
     length 0.771611   
     axis 3.82337e-015 90 90   XYZ
    dof rx rz
    limits (-90.0 90.0)
           (-45.0 45.0)
  end
  begin
     id 22 
     name lfingers
     direction 1 -4.49034e-011 -1.1993e-026   
     length 0.622093   
     axis 7.64668e-015 90 90   XYZ
    dof rx
    limits (0.0 90.0)
  end
  begin
     id 23
     name lthumb
     direction 0.707107 -6.34867e-011 0.707107   
     length 0.893204   
     axis -90 45 -1.62303e-014   XYZ
    dof rx rz
    limits (-45.0 45.0)
           (-45.0 45.0)
  end
  begin
     id 24 
     name rclavicle
     direction -0.93442 0.355634 -0.0195692   
     length 3.62463  
     axis 0 0 0   XYZ 
    dof ry rz
    limits (-10.0 20.0)
           (-20.0 0.0)
  end
  begin
     id 25 
     name rhumerus
     direction -1 -4.48957e-011 -1.19147e-027  
     length 5.14182   
     axis 180 30 90   XYZ
    dof rx ry rz
    limits (-90.0 60.0)
           (-90.0 90.0)
           (-90.0 90.0)
  end
  begin
     id 26 
     name rradius
     direction -1 -4.48952e-011 -3.81062e-027   
     length 3.35565   
     axis 180 30 90   XYZ
    dof rx
    limits (-10.0 170.0)
  end
  begin
     id 27 
     name rwrist
     direction -1 -4.48973e-011 -2.99621e-027   
     length 1.67782   
     axis 1.95339e-015 -90 -90   XYZ
    dof ry
    limits (-180.0 0.0)
  end
  begin
     id 28
     name rhand
     direction -1 -4.48895e-011 -5.98727e-027   
     length 0.801042   
     axis 3.82337e-015 -90 -90   XYZ
    dof rx rz
    limits (-90.0 90.0)
           (-45.0 45.0)
  end
  begin
     id 29
     name rfingers
     direction -1 -4.49065e-011 -1.19972e-026   
     length 0.645821   
     axis 7.64668e-015 -90 -90   XYZ
    dof rx
    limits (0.0 90.0)
  end
  begin
     id 30
     name rthumb
     direction -0.707107 -6.34957e-011 0.707107   
     length 0.927273   
     axis -90 -45 1.62303e-014   XYZ
    dof rx rz
    limits (-45.0 45.0)
           (-45.0 45.0)
  end
:hierarchy
  begin
    root lhipjoint rhipjoint lowerback
    lhipjoint lfemur
    lfemur ltibia
    ltibia lfoot
    lfoot ltoes
    rhipjoint rfemur
    rfemur rtibia
    rtibia rfoot
    rfoot rtoes
    lowerback upperback
    upperback thorax
    thorax lowerneck lclavicle rclavicle
    lowerneck upperneck
    upperneck head
    lclavicle lhumerus
    lhumerus lradius
    lradius lwrist
    lwrist lhand lthumb
    lhand lfingers
    rclavicle rhumerus
    rhumerus rradius
    rradius rwrist
    rwrist rhand rthumb
    rhand rfingers
  end

#!OML:ASF E:\Style4\Style4.ASF
:FULLY-SPECIFIED
:DEGREES
1
root -0.25047 17.7685 -2.74521 3.85834 -1.11914 1.78085
lowerback 10.1174 2.31439 -0.787604
upperback 4.33806 2.98972 0.0909697
thorax -1.20341 1.48093 0.208503
lowerneck -0.477927 -4.71865 -6.42556
upperneck 4.57383 -6.3509 4.35431
head 1.91624 -3.19735 2.38062
rclavicle 2.01766e-014 0
rhumerus 34.7656 2.36726 -65.4271
rradius 37.5212
rwrist -60.9919
rhand -5.25953 11.8345
rfingers 7.12502
rthumb 20.544 -17.0984
lclavicle 2.01766e-014 0
lhumerus 36.816 -18.0053 57.4672
lradius 51.6592
lwrist 62.3448
lhand 4.6047 30.2364
lfingers 7.12502
lthumb 29.9929 57.825
rfemur -21.9209 0.973859 16.7701
rtibia 34.383
rfoot -15.5384 -12.1801
rtoes -11.4841
lfemur -18.7403 1.32274 -21.033
ltibia 32.901
lfoot -18.2395 10.0028
ltoes -14.3568
2
root -0.251626 17.7707 -2.74734 3.8211 -1.12537 1.74868
lowerback 10.1991 2.30685 -0.744842
upperback 4.34301 2.98307 0.106254
thorax -1.24146 1.4779 0.197752
lowerneck -0.483455 -4.69922 -6.42579
upperneck 4.59174 -6.32236 4.29888
head 1.91895 -3.1841 2.36277
rclavicle -2.46493e-014 -1.59028e-015
rhumerus 34.7397 2.40882 -65.4112
rradius 37.5371
rwrist -60.9142
rhand -5.16463 11.8637
rfingers 7.12502
rthumb 20.6352 -17.0594
lclavicle -2.46493e-014 -1.59028e-015
lhumerus 36.7344 -18.0046 57.4586
lradius 51.696
lwrist 62.3228
lhand 4.71197 30.2984
lfingers 7.12502
lthumb 30.0952 57.8683
rfemur -21.8798 0.9636 16.817
rtibia 34.3591
rfoot -15.5052 -12.1479
rtoes -11.8684
lfemur -18.6951 1.34994 -20.9968
ltibia 32.8714
lfoot -17.9903 10.0864
ltoes -15.0955
3
root -0.254407 17.7699 -2.74977 3.82217 -1.1306 1.7814
lowerback 10.2265 2.30167 -0.786637
upperback 4.35122 2.9719 0.101659
thorax -1.24963 1.47192 0.216678
lowerneck -0.504987 -4.68856 -6.39705
upperneck 4.58429 -6.30426 4.23326
head 1.91519 -3.17543 2.33578
rclavicle 2.38542e-014 -7.15625e-015
rhumerus 34.7386 2.4505 -65.3782
rradius 37.5716
rwrist -60.883
rhand -5.07039 11.8794
rfingers 7.12502
rthumb 20.7258 -17.0339
lclavicle 2.38542e-014 -7.15625e-015
lhumerus 36.724 -18.0147 57.3509
lradius 51.7158
lwrist 62.3907
lhand 4.69052 30.3026
lfingers 7.12502
lthumb 30.0747 57.8763
rfemur -21.9106 0.944141 16.7911
rtibia 34.3881
rfoot -15.5209 -12.1113
rtoes -11.7819
lfemur -18.7314 1.35229 -21.0237
ltibia 32.9213
lfoot -18.0373 10.0784
ltoes -15.1098
4
root -0.257993 17.7694 -2.75394 3.89048 -1.10856 1.72013
lowerback 10.2069 2.29622 -0.737828
upperback 4.32118 2.96964 0.112444
thorax -1.26825 1.4713 0.200799
lowerneck -0.472385 -4.70386 -6.3498
upperneck 4.60176 -6.3264 4.2016
head 1.91299 -3.18658 2.31667
rclavicle 1.39149e-014 7.15625e-015
rhumerus 34.7289 2.50408 -65.2939
rradius 37.5778
rwrist -60.8699
rhand -5.10844 11.8607
rfingers 7.12502
rthumb 20.6892 -17.0565
lclavicle 1.39149e-014 7.15625e-015
lhumerus 36.7362 -18.0606 57.2827
lradius 51.7149
lwrist 62.4126
lhand 4.67435 30.2981
lfingers 7.12502
lthumb 30.0593 57.8746
rfemur -22.0266 0.953422 16.8724
rtibia 34.4399
rfoot -15.491 -12.1387
rtoes -11.7165
lfemur -18.8474 1.34329 -20.9372
ltibia 32.9611
lfoot -18.0718 10.0283
ltoes -14.9002
5
root -0.260202 17.7707 -2.75668 3.93595 -1.10618 1.6233
lowerback 10.1928 2.29832 -0.614973
upperback 4.334 2.98426 0.125562
thorax -1.24197 1.47964 0.144971
lowerneck -0.55798 -4.72408 -6.34342
upperneck 4.64492 -6.34886 4.19077
head 1.94302 -3.19719 2.3091
rclavicle -3.19049e-014 4.77083e-015
rhumerus 34.7853 2.54098 -65.1698
rradius 37.6067
rwrist -60.9437
rhand -5.25337 11.8315
rfingers 7.12502
rthumb 20.55 -17.1008
lclavicle -3.19049e-014 4.77083e-015
lhumerus 36.8147 -18.0852 57.2082
lradius 51.7145
lwrist 62.3977
lhand 4.60507 30.2323
lfingers 7.12502
lthumb 29.9932 57.8208
rfemur -22.0764 0.950655 16.995
rtibia 34.5111
rfoot -15.5332 -12.05
rtoes -11.0855
lfemur -18.9381 1.35564 -20.829
ltibia 33.0063
lfoot -17.99 10.0642
ltoes -14.9986
6
root -0.262088 17.7723 -2.75764 3.96076 -1.11233 1.62309
lowerback 10.1885 2.2718 -0.578676
upperback 4.38692 2.95258 0.125336
thorax -1.18265 1.46408 0.129566
lowerneck -0.771451 -4.71837 -6.42513
upperneck 4.67628 -6.32771 4.19448
head 1.994 -3.18606 2.32085
rclavicle 2.28602e-015 7.55382e-015
rhumerus 34.94 2.60463 -65.0804
rradius 37.6403
rwrist -60.9781
rhand -5.24938 11.7438
rfingers 7.12502
rthumb 20.5538 -17.1881
lclavicle 2.28602e-015 7.55382e-015
lhumerus 36.8817 -17.9632 57.1644
lradius 51.7283
lwrist 62.3161
lhand 4.43366 30.1274
lfingers 7.12502
lthumb 29.8296 57.7453
rfemur -22.0752 0.932253 17.0079
rtibia 34.5839
rfoot -15.6058 -11.894
rtoes -10.1013
lfemur -18.9976 1.38051 -20.8395
ltibia 33.0442
lfoot -17.8709 10.0368
ltoes -14.8722
7
root -0.263751 17.7734 -2.7598 3.95747 -1.12324 1.6267
lowerback 10.2065 2.21744 -0.620557
upperback 4.42608 2.87768 0.179304
thorax -1.15612 1.42572 0.217159
lowerneck -0.863315 -4.66481 -6.56498
upperneck 4.66912 -6.24364 4.12392
head 2.006 -3.14701 2.32326
rclavicle -6.85807e-015 8.74653e-015
rhumerus 35.0931 2.843 -64.9084
rradius 37.6844
rwrist -60.9964
rhand -5.27421 11.7723
rfingers 7.12502
rthumb 20.5299 -17.1622
lclavicle -6.85807e-015 8.74653e-015
lhumerus 36.8262 -17.7299 57.2154
lradius 51.6907
lwrist 62.1532
lhand 4.41331 30.0566
lfingers 7.12502
lthumb 29.8102 57.678
rfemur -22.0797 0.940071 17.0118
rtibia 34.6362
rfoot -15.6167 -11.8217
rtoes -9.73887
lfemur -19.0202 1.39362 -20.8402
ltibia 33.0704
lfoot -17.8237 9.99372
ltoes -14.2989
8
root -0.266559 17.772 -2.76111 3.93893 -1.12236 1.62656
lowerback 10.2157 2.18751 -0.650475
upperback 4.43495 2.83575 0.205211
thorax -1.15432 1.40425 0.265088
lowerneck -0.7411 -4.62183 -6.65849
upperneck 4.57953 -6.19136 4.15648
head 1.95687 -3.12268 2.35578
rclavicle 1.69961e-014 -1.59028e-014
rhumerus 35.1427 2.96428 -64.8466
rradius 37.7007
rwrist -61.0129
rhand -5.24864 11.7847
rfingers 7.12502
rthumb 20.5545 -17.1471
lclavicle 1.69961e-014 -1.59028e-014
lhumerus 36.7545 -17.639 57.2092
lradius 51.7296
lwrist 62.0527
lhand 4.42721 30.1562
lfingers 7.12502
lthumb 29.8235 57.7753
rfemur -22.0912 0.936821 17.0192
rtibia 34.6773
rfoot -15.6354 -11.7647
rtoes -9.87826
lfemur -19.0055 1.37809 -20.8282
ltibia 33.0848
lfoot -17.7823 10.0829
ltoes -14.5399
9
root -0.269182 17.771 -2.76189 3.92974 -1.13459 1.59085
lowerback 10.2357 2.19951 -0.606296
upperback 4.43975 2.85549 0.20416
thorax -1.15832 1.41455 0.236422
lowerneck -0.723627 -4.6346 -6.6835
upperneck 4.58019 -6.21148 4.2111
head 1.95859 -3.13236 2.37832
rclavicle -1.11319e-014 1.98785e-015
rhumerus 35.1498 2.94992 -64.7771
rradius 37.7118
rwrist -61.0355
rhand -5.23116 11.7728
rfingers 7.12502
rthumb 20.5713 -17.1572
lclavicle -1.11319e-014 1.98785e-015
lhumerus 36.7907 -17.6638 57.1673
lradius 51.7499
lwrist 62.0083
lhand 4.45156 30.2041
lfingers 7.12502
lthumb 29.8467 57.819
rfemur -22.1001 0.929031 17.0697
rtibia 34.6973
rfoot -15.632 -11.7475
rtoes -9.83652
lfemur -19.0022 1.36393 -20.783
ltibia 33.099
lfoot -17.7602 10.2202
ltoes -15.1891
10
root -0.271589 17.7699 -2.76208 3.93146 -1.14228 1.58569
lowerback 10.2303 2.20913 -0.595588
upperback 4.44539 2.86911 0.197236
thorax -1.14874 1.42149 0.222153
lowerneck -0.72593 -4.64545 -6.70517
upperneck 4.59807 -6.22712 4.24317
head 1.96815 -3.14005 2.39236
rclavicle 2.79292e-014 -7.95139e-016
rhumerus 35.173 2.88005 -64.8007
rradius 37.7026
rwrist -60.9292
rhand -5.16282 11.7147
rfingers 7.12502
rthumb 20.637 -17.2082
lclavicle 2.79292e-014 -7.95139e-016
lhumerus 36.7981 -17.6953 57.1215
lradius 51.8126
lwrist 62.0435
lhand 4.55477 30.3444
lfingers 7.12502
lthumb 29.9452 57.9415
rfemur -22.1166 0.92691 17.0831
rtibia 34.7219
rfoot -15.6204 -11.7656
rtoes -9.64938
lfemur -19.0097 1.37193 -20.7701
ltibia 33.111
lfoot -17.8173 10.188
ltoes -14.9486
11
root -0.272797 17.7703 -2.76204 3.95276 -1.13839 1.64185
lowerback 10.199 2.20206 -0.649152
upperback 4.45065 2.85477 0.180637
thorax -1.12777 1.41389 0.23799
lowerneck -0.771834 -4.6332 -6.72179
upperneck 4.64937 -6.20909 4.25675
head 1.99344 -3.13098 2.39919
rclavicle -2.9122e-014 4.37326e-015
rhumerus 35.1847 2.86726 -64.7852
rradius 37.7539
rwrist -60.8975
rhand -5.07061 11.6957
rfingers 7.12502
rthumb 20.7256 -17.2175
lclavicle -2.9122e-014 4.37326e-015
lhumerus 36.813 -17.6607 57.0809
lradius 51.842
lwrist 62.099
lhand 4.77585 30.5249
lfingers 7.12502
lthumb 30.1561 58.0838
rfemur -22.1577 0.874162 17.0288
rtibia 34.7604
rfoot -15.6063 -11.762
rtoes -9.91916
lfemur -19.0362 1.36034 -20.831
ltibia 33.1204
lfoot -17.871 10.1688
ltoes -14.8965
